.
..............................Site Info...........................

 -   http://www.scenetime.com  *_*   


Scenetime .Always on time . friendly online private torrent community ..

     We care to share . Join us on  http://www.scenetime.com 

    Be the first to get new release at  http://www.scenetime.com

        Seed back for speed


...................................NFO:.................................................   General #1
      ID : 1 (0x1)
      Complete name : Dexter.S07E05.1080i.HDTV.DD5.1.MPEG2-TrollHD.ts
      Format : MPEG-TS
      File size : 4.64 GiB
      Duration : 57mn 48s
      Overall bit rate mode : Variable
      Overall bit rate : 11.5 Mbps
   
   Video #615
      ID : 615 (0x267)
      Menu ID : 1 (0x1)
      Format : MPEG Video
      Format version : Version 2
      Format profile : Main@High
      Format settings, BVOP : Yes
      Format settings, Matrix : Custom
      Codec ID : 2
      Duration : 57mn 48s
      Bit rate mode : Variable
      Bit rate : 10.5 Mbps
      Maximum bit rate : 14.7 Mbps
      Width : 1 920 pixels
      Height : 1 080 pixels
      Display aspect ratio : 16:9
      Frame rate : 29.970 fps
      Color space : YUV
      Chroma subsampling : 4:2:0
      Bit depth : 8 bits
      Compression mode : Lossy
      Bits/(Pixel*Frame) : 0.170
      Stream size : 4.26 GiB (92%)
   
   Audio #613
      ID : 613 (0x265)
      Menu ID : 1 (0x1)
      Format : AC-3
      Format/Info : Audio Coding 3
      Mode extension : CM (complete main)
      Format settings, Endianness : Big
      Codec ID : 129
      Duration : 57mn 48s
      Bit rate mode : Constant
      Bit rate : 384 Kbps
      Channel(s) : 6 channels
      Channel positions : Front: L C R, Side: L R, LFE
      Sampling rate : 48.0 KHz
      Bit depth : 16 bits
      Compression mode : Lossy
      Stream size : 159 MiB (3%)
      Language : English
   
   Text #615-CC1
      ID : 615 (0x267)-CC1
      Menu ID : 1 (0x1)
      Format : EIA-608
      Muxing mode : A/53 / DTVCC Transport
      Muxing mode, more info : Muxed in Video #1
      Duration : 57mn 48s
      Bit rate mode : Constant
      Stream size : 0.00 Byte (0%)
   
   
   Text #615-1
      ID : 615 (0x267)-1
      Menu ID : 1 (0x1)
      Format : EIA-708
      Muxing mode : A/53 / DTVCC Transport
      Muxing mode, more info : Muxed in Video #1
      Duration : 57mn 48s
      Bit rate mode : Constant
      Stream size : 0.00 Byte (0%)
   
   Text #615-2
      ID : 615 (0x267)-2
      Menu ID : 1 (0x1)
      Format : EIA-708
      Muxing mode : A/53 / DTVCC Transport
      Muxing mode, more info : Muxed in Video #1
      Duration : 57mn 48s
      Bit rate mode : Constant
      Stream size : 0.00 Byte (0%)